<svg preserveAspectRatio="none" overflow="visible" style="display: block;" width="81.4001" height="81.4003" viewBox="0 0 81.4001 81.4003" fill="none" xmlns="http://www.w3.org/2000/svg">
<g id="&#235;&#167;&#144;&#237;&#146;&#141;&#236;&#132;&#160;-&#236;&#177;&#151;&#235;&#180;&#135;" filter="url(#filter0_d_0_15)">
<rect x="12.7" y="8.70033" width="56" height="56" rx="21.7778" fill="#9869F4" shape-rendering="crispEdges"/>
<rect x="13.2444" y="9.24477" width="54.9111" height="54.9111" rx="21.2333" stroke="#9869F4" stroke-width="1.08889" shape-rendering="crispEdges"/>
<g id="&#235;&#167;&#144;&#237;&#146;&#141;&#236;&#132;&#160;">
<g id="&#235;&#167;&#144;&#237;&#146;&#141;&#236;&#132;&#160;=purple">
<path d="M40.7 22.7003C48.432 22.7003 54.7 28.3618 54.7 35.3455C54.7 42.3292 48.432 47.9906 40.7 47.9906C39.3179 47.9906 37.983 47.8081 36.7219 47.4711L29.8613 50.7003V43.3493C27.8856 41.1692 26.7 38.3825 26.7 35.3455C26.7 28.3618 32.968 22.7003 40.7 22.7003Z" fill="white"/>
</g>
<g id="&#235;&#167;&#144;&#237;&#146;&#141;&#236;&#132;&#160;=purple_2">
<path d="M37.0871 35.2388C37.0871 35.987 36.4805 36.5936 35.7323 36.5936C34.984 36.5936 34.3774 35.987 34.3774 35.2388C34.3774 34.4905 34.984 33.8839 35.7323 33.8839C36.4805 33.8839 37.0871 34.4905 37.0871 35.2388Z" fill="#9869F4"/>
<path d="M42.5065 35.2388C42.5065 35.987 41.8999 36.5936 41.1516 36.5936C40.4034 36.5936 39.7968 35.987 39.7968 35.2388C39.7968 34.4905 40.4034 33.8839 41.1516 33.8839C41.8999 33.8839 42.5065 34.4905 42.5065 35.2388Z" fill="#9869F4"/>
<path d="M47.9258 35.2388C47.9258 35.987 47.3192 36.5936 46.571 36.5936C45.8227 36.5936 45.2161 35.987 45.2161 35.2388C45.2161 34.4905 45.8227 33.8839 46.571 33.8839C47.3192 33.8839 47.9258 34.4905 47.9258 35.2388Z" fill="#9869F4"/>
</g>
</g>
<circle id="Ellipse 8" cx="61.3112" cy="16.0889" r="6.22222" fill="#E2382B" stroke="white" stroke-width="2.33333"/>
</g>
<defs>
<filter id="filter0_d_0_15" x="0" y="-4.76837e-07" width="81.4001" height="81.4003" filterUnits="userSpaceOnUse" color-interpolation-filters="sRGB">
<feFlood flood-opacity="0" result="BackgroundImageFix"/>
<feColorMatrix in="SourceAlpha" type="matrix" values="0 0 0 0 0 0 0 0 0 0 0 0 0 0 0 0 0 0 127 0" result="hardAlpha"/>
<feOffset dy="4"/>
<feGaussianBlur stdDeviation="6.35"/>
<feComposite in2="hardAlpha" operator="out"/>
<feColorMatrix type="matrix" values="0 0 0 0 0 0 0 0 0 0 0 0 0 0 0 0 0 0 0.24 0"/>
<feBlend mode="normal" in2="BackgroundImageFix" result="effect1_dropShadow_0_15"/>
<feBlend mode="normal" in="SourceGraphic" in2="effect1_dropShadow_0_15" result="shape"/>
</filter>
</defs>
</svg>
