<svg width="48" height="48" viewBox="0 0 48 48" fill="none" xmlns="http://www.w3.org/2000/svg">
<path d="M33.1197 7.81118C33.6427 7.29177 34.3518 7 35.0911 7C35.8305 7 36.5395 7.29177 37.0625 7.81118L41.1838 11.9073C41.7064 12.427 42 13.1318 42 13.8666C42 14.6014 41.7064 15.3062 41.1838 15.826L36.7326 20.2499L36.7135 20.2705L19.4569 36.6406C19.1417 36.9401 18.7601 37.162 18.343 37.2884L9.54096 39.9495C9.33398 40.0115 9.11395 40.0165 8.90431 39.9641C8.69467 39.9116 8.50326 39.8037 8.35047 39.6517C8.19754 39.4998 8.08891 39.3096 8.03615 39.1012C7.98338 38.8929 7.98847 38.6742 8.05085 38.4685L10.7171 29.7568C10.8569 29.3008 11.1127 28.8883 11.4598 28.5593L28.6781 12.2241L33.1197 7.81118ZM35.7971 9.90192C35.4067 9.51376 34.776 9.51418 34.3861 9.90287L31.3211 12.9583C31.284 12.9951 31.2546 13.0388 31.2345 13.0869C31.2144 13.135 31.2041 13.1866 31.2041 13.2387C31.2041 13.2907 31.2144 13.3423 31.2345 13.3904C31.2546 13.4385 31.284 13.4822 31.3211 13.519L35.4424 17.6151C35.4795 17.652 35.5234 17.6812 35.5718 17.7012C35.6202 17.7212 35.6721 17.7314 35.7245 17.7314C35.7769 17.7314 35.8288 17.7212 35.8772 17.7012C35.9256 17.6812 35.9696 17.652 36.0066 17.6151L39.0639 14.566C39.4562 14.1748 39.4557 13.5393 39.0628 13.1488L35.7971 9.90192Z" fill="#663DB8"/>
</svg>
