<svg width="48" height="48" viewBox="0 0 48 48" fill="none" xmlns="http://www.w3.org/2000/svg">
<g clip-path="url(#clip0_547_6204)">
<path d="M37.5478 9.27734C39.6857 9.27734 41.4188 11.0104 41.4188 13.1483V30.5677C41.4188 32.7055 39.6857 34.4386 37.5478 34.4386H29.8059V39.33C29.8059 39.4206 29.8376 39.5082 29.8956 39.5778L33.1476 43.481C33.3576 43.733 33.1788 44.1157 32.8509 44.1161H15.148C14.8201 44.1157 14.6412 43.733 14.8512 43.481L18.1033 39.5778C18.1612 39.5082 18.193 39.4206 18.193 39.33V34.4386H10.451C8.31317 34.4386 6.58008 32.7055 6.58008 30.5677V13.1483C6.58008 11.0104 8.31317 9.27734 10.451 9.27734H37.5478Z" fill="#CEB8FB"/>
<path d="M32.0524 42.181H15.9419L18.0957 39.4034C18.1589 39.322 18.1931 39.2219 18.1931 39.1188V34.4004H29.806V39.1191C29.806 39.222 29.8402 39.322 29.9032 39.4033L32.0524 42.181Z" fill="#9869F4"/>
<circle cx="24.0002" cy="11.8996" r="6.3" fill="#663DB8"/>
<path d="M36.79 28.148C38.8589 30.6307 37.0935 34.4 33.8617 34.4H14.1383C10.9065 34.4 9.14108 30.6307 11.21 28.148L16.3808 21.943C17.4068 20.7118 18.9266 20 20.5292 20H27.4708C29.0734 20 30.5932 20.7118 31.6192 21.943L36.79 28.148Z" fill="#663DB8"/>
</g>
<defs>
<clipPath id="clip0_547_6204">
<rect width="40" height="40" fill="white" transform="translate(4 5)"/>
</clipPath>
</defs>
</svg>
