<svg width="48" height="48" viewBox="0 0 48 48" fill="none" xmlns="http://www.w3.org/2000/svg">
<path d="M39 16C40.6569 16 42 17.3431 42 19C42 20.6569 40.6569 22 39 22C38.5584 22 38.1403 21.9018 37.7627 21.7305L31.6836 28.666C31.8839 29.0683 32 29.5201 32 30C32 31.6569 30.6569 33 29 33C27.3431 33 26 31.6569 26 30C26 29.52 26.115 29.0674 26.3154 28.665L20.2373 21.7305C19.8597 21.9018 19.4416 22 19 22C18.7083 22 18.4268 21.9566 18.1602 21.8789L9.64746 31.5908C9.87165 32.0111 10 32.4904 10 33C10 34.6569 8.65685 36 7 36C5.34315 36 4 34.6569 4 33C4 31.3431 5.34315 30 7 30C7.41655 30 7.81329 30.0848 8.17383 30.2383L16.5312 20.7031C16.1968 20.2192 16 19.6328 16 19C16 17.3431 17.3431 16 19 16C20.6569 16 22 17.3431 22 19C22 19.483 21.8825 19.9376 21.6797 20.3418L27.7549 27.2725C28.1344 27.0989 28.5554 27 29 27C29.4449 27 29.8664 27.0987 30.2461 27.2725L36.3203 20.3428C36.1173 19.9384 36 19.4833 36 19C36 17.3431 37.3431 16 39 16Z" fill="#663DB8"/>
<path d="M29.3121 10.5773L29.0165 11.4852C28.6142 12.7209 27.6368 13.6841 26.3953 14.0683L25.5946 14.316C25.4089 14.3735 25.406 14.6353 25.5905 14.6968L26.4776 14.9925C27.672 15.3907 28.6093 16.3279 29.0074 17.5224L29.3103 18.4308C29.371 18.6131 29.6289 18.6131 29.6897 18.4308L29.9925 17.5224C30.3907 16.3279 31.3279 15.3907 32.5224 14.9925L33.4308 14.6897C33.6131 14.629 33.6131 14.371 33.4308 14.3103L32.5224 14.0075C31.3279 13.6093 30.3907 12.6721 29.9925 11.4776L29.692 10.5759C29.631 10.3929 29.3718 10.3938 29.3121 10.5773Z" fill="#663DB8"/>
<path d="M8.39559 15.3207L8.23138 15.8251C8.0079 16.5116 7.46486 17.0467 6.77518 17.2601L6.33033 17.3978C6.22715 17.4297 6.22557 17.5752 6.32803 17.6093L6.8209 17.7736C7.48447 17.9948 8.00517 18.5155 8.22636 19.1791L8.39459 19.6838C8.42835 19.7851 8.57164 19.7851 8.60541 19.6838L8.77363 19.1791C8.99482 18.5155 9.51552 17.9948 10.1791 17.7736L10.6838 17.6054C10.7851 17.5716 10.7851 17.4284 10.6838 17.3946L10.1791 17.2264C9.51552 17.0052 8.99482 16.4845 8.77363 15.8209L8.60665 15.32C8.57276 15.2183 8.42877 15.2188 8.39559 15.3207Z" fill="#663DB8"/>
</svg>
